<?xml version="1.0" encoding="UTF-8" standalone="no"?>
<!-- Created with Inkscape (http://www.inkscape.org/) -->

<svg
   width="263.77029mm"
   height="38.43499mm"
   viewBox="0 0 263.77029 38.43499"
   version="1.1"
   id="svg1"
   xml:space="preserve"
   inkscape:version="1.4.2 (f4327f4, 2025-05-13)"
   sodipodi:docname="anfitritelogo.svg"
   xmlns:inkscape="http://www.inkscape.org/namespaces/inkscape"
   xmlns:sodipodi="http://sodipodi.sourceforge.net/DTD/sodipodi-0.dtd"
   xmlns="http://www.w3.org/2000/svg"
   xmlns:svg="http://www.w3.org/2000/svg"><sodipodi:namedview
     id="namedview1"
     pagecolor="#ffffff"
     bordercolor="#000000"
     borderopacity="0.25"
     inkscape:showpageshadow="2"
     inkscape:pageopacity="0.0"
     inkscape:pagecheckerboard="0"
     inkscape:deskcolor="#d1d1d1"
     inkscape:document-units="mm"
     inkscape:zoom="0.35945918"
     inkscape:cx="318.53408"
     inkscape:cy="229.51146"
     inkscape:window-width="1920"
     inkscape:window-height="1009"
     inkscape:window-x="-8"
     inkscape:window-y="-8"
     inkscape:window-maximized="1"
     inkscape:current-layer="layer1" /><defs
     id="defs1" /><g
     inkscape:label="Capa 1"
     inkscape:groupmode="layer"
     id="layer1"
     transform="translate(32.390038,-160.0174)"><path
       style="fill:#2dc1f0;fill-opacity:1"
       d="m -17.169029,198.05496 -1.5875,-0.33436 -1.149299,-0.42488 -1.1493,-0.42487 -1.099658,-0.59312 -1.099659,-0.59312 -1.058334,-0.79758 -1.058333,-0.79758 -0.879782,-0.78956 -0.879783,-0.78955 -1.256382,-1.72533 -1.256382,-1.72533 -0.689756,-1.45521 -0.689756,-1.45521 -0.402749,-1.32291 -0.40275,-1.32292 -0.280793,-2.09651 -0.280793,-2.09651 0.295195,-2.26911 0.295194,-2.26912 0.525164,-1.5875 0.525165,-1.5875 0.953018,-1.85208 0.953017,-1.85208 2.397545,-2.39148 2.397545,-2.39148 2.248958,-1.08708 2.248958,-1.08707 1.915882,-0.45925 1.915881,-0.45926 3.375785,0.14659 3.3757849,0.14659 1.190625,0.39175 1.190625,0.39174 1.2769336,0.55444 1.2769337,0.55444 1.4419504,0.95712 1.4419504,0.95711 1.1282724,1.09655 1.1282724,1.09656 1.059749,1.45282 1.0597489,1.45282 0.6881577,1.45521 0.6881576,1.45521 0.4001007,1.19062 0.4001007,1.19063 0.3238198,2.20071 0.3238197,2.20071 -0.3294628,2.4295 -0.3294629,2.42949 -0.7565103,2.08065 -0.7565103,2.08064 -0.679439,1.15937 -0.679439,1.15938 -1.3034617,1.56626 -1.3034617,1.56627 -1.6021617,1.23284 -1.6021618,1.23283 -1.9612998,0.90618 -1.9612999,0.90618 -1.8867579,0.39689 -1.8867571,0.39689 -2.297807,-0.0315 -2.297807,-0.0315 z m 8.7312496,-1.04387 1.5875,-0.43346 1.1906249,-0.55921 1.190625,-0.55922 1.6251291,-1.14226 1.6251291,-1.14226 1.4620707,-1.61564 1.4620707,-1.61564 0.9302286,-1.77022 0.9302286,-1.77023 0.3899177,-1.18518 0.3899178,-1.18517 0.2890079,-1.40209 0.2890079,-1.40208 v -2.32591 -2.3259 L 4.4125415,174.57809 3.9014043,172.57957 3.1183186,171.02828 2.335233,169.477 l -1.2298596,-1.63608 -1.2298596,-1.63607 -1.2664495,-1.06033 -1.2664496,-1.06033 -1.9641554,-1.0457 -1.9641554,-1.0457 -1.5875,-0.4728 -1.5875,-0.47281 -3.4395829,-0.005 -3.439583,-0.005 -1.5875,0.47208 -1.5875,0.47208 -1.879731,1.00634 -1.879731,1.00635 -0.766102,0.6251 -0.766103,0.62511 -1.221179,1.25087 -1.22118,1.25086 -0.905419,1.52919 -0.905419,1.52919 -0.585463,1.37216 -0.585463,1.37216 -0.396792,1.88628 -0.396793,1.88629 v 1.95405 1.95406 l 0.289008,1.40208 0.289008,1.40209 0.389918,1.18517 0.389918,1.18518 0.911763,1.72524 0.911764,1.72524 1.361196,1.54364 1.361195,1.54365 1.434254,1.05954 1.434254,1.05955 1.756957,0.82218 1.756957,0.82218 1.86055,0.47402 1.86055,0.47402 2.645833,-0.10383 2.645833,-0.10383 z m -9.8756166,-2.41779 -1.673535,-0.36638 -1.244117,-0.62488 -1.244117,-0.62488 -1.056641,-0.66703 -1.056642,-0.66703 -1.231344,-1.24899 -1.231343,-1.24898 -0.687519,-1.45206 -0.687518,-1.45207 -0.15555,-1.50107 -0.155551,-1.50108 0.28707,-1.0608 0.287069,-1.06081 0.694443,-1.07099 0.694443,-1.07099 1.230735,-0.77862 1.230734,-0.77862 h 1.719792 1.719792 l 0.973415,0.60528 0.973414,0.60529 0.578374,1.19476 0.578373,1.19477 -0.337771,1.2064 -0.337772,1.2064 -0.817142,0.49829 -0.817141,0.49829 -0.661459,-0.003 -0.661458,-0.003 -0.283882,-0.19439 -0.283883,-0.19438 -0.194814,-0.52917 -0.194813,-0.52916 0.333175,0.33072 0.333175,0.33073 h 0.694713 0.694713 l 0.575287,-0.61236 0.575287,-0.61237 v -0.86319 -0.8632 l -0.805893,-0.80589 -0.805893,-0.8059 -1.32119,0.12695 -1.32119,0.12695 -0.981771,0.78426 -0.981771,0.78425 -0.479642,0.90723 -0.479642,0.90723 0.109269,1.71979 0.109269,1.71979 0.591598,1.15861 0.591598,1.15861 1.388439,1.37738 1.38844,1.37739 1.565335,0.85734 1.565336,0.85735 1.960553,0.50927 1.960552,0.50926 h 1.348486 1.348486 l 0.911748,-0.26148 0.911747,-0.26149 -0.43172,0.43172 -0.431721,0.43172 -1.804691,0.34921 -1.80469,0.34921 -0.79375,-0.0169 -0.79375,-0.0168 z m 13.4474915,-2.49479 -0.396875,-0.23734 -2.9387515,-1.21115 -2.938751,-1.21115 -0.5859,-0.62367 -0.585901,-0.62366 0.08507,-0.88885 0.08507,-0.88884 h 0.440573 0.440572 l 1.4115104,1.32922 1.4115112,1.32922 1.4236246,1.11817 1.4236245,1.11818 h 0.3384436 0.3384435 l -2.5548658,-2.4474 -2.554866,-2.44739 -0.289894,-0.27004 -0.289894,-0.27005 -0.318385,-0.59491 -0.318385,-0.5949 0.342744,-0.69625 0.342743,-0.69625 0.545252,-0.19769 0.5452529,-0.1977 0.8753152,1.6266 0.8753152,1.6266 1.4545887,2.24896 1.4545887,2.24896 0.1014061,0.11024 0.101406,0.11025 0.1223248,-0.12233 0.1223248,-0.12232 -0.4120476,-0.78167 -0.4120477,-0.78167 -1.6946521,-3.33028 -1.6946521,-3.33028 v -0.57233 -0.57232 l 0.5224367,-0.52243 0.5224367,-0.52244 0.6699274,-0.16814 0.6699274,-0.16814 0.8948832,0.16788 0.8948831,0.16788 0.2806968,0.72113 0.2806968,0.72114 0.1794417,4.29948 0.1794418,4.29948 h 0.2046383 0.2046383 l 0.1675597,-2.97657 0.1675596,-2.97656 -0.075313,-1.5875 -0.075313,-1.5875 0.8436084,-0.0817 0.8436084,-0.0817 0.4536357,0.69234 0.4536356,0.69233 -0.4230472,1.63832 -0.4230472,1.63832 -0.6778696,2.24263 -0.6778695,2.24262 0.102546,0.27092 0.102546,0.27091 0.6758984,-1.42997 0.6758984,-1.42997 0.7450199,-2.33406 0.7450199,-2.33405 0.4537118,-0.006 0.4537118,-0.006 0.2738924,0.51177 0.2738923,0.51177 -0.00319,0.61271 -0.00319,0.6127 -0.6629674,1.15976 -0.6629675,1.15975 -1.8708211,2.34598 -1.8708212,2.34597 -0.7041701,-0.0156 -0.7041702,-0.0156 z m -13.7973045,-2.92499 1.151653,-0.5929 0.925841,-0.9511 0.92584,-0.95109 0.525319,-1.02697 0.525319,-1.02698 0.370886,-1.22198 0.370886,-1.22198 0.0029,-1.76564 0.0029,-1.76564 -0.659446,-0.78371 -0.659445,-0.7837 -1.173254,-0.17594 -1.173253,-0.17594 -0.87928,-0.5855 -0.87928,-0.5855 -0.478769,-0.97605 -0.478768,-0.97605 0.331248,-1.534 0.331248,-1.534 0.01523,-1.45521 0.01523,-1.45521 -0.22986,-0.66146 -0.229859,-0.66145 0.812317,0.76478 0.812317,0.76479 0.173429,0.78962 0.173428,0.78962 -0.340607,0.2105 -0.340607,0.21051 -0.116395,1.60914 -0.116394,1.60914 0.307642,0.74271 0.307642,0.74272 0.757213,0.44729 0.757214,0.4473 h 0.769182 0.769183 l 0.595265,-0.55457 0.595266,-0.55458 0.248374,-0.65327 0.248375,-0.65328 v -2.84909 -2.8491 l -0.16708,-0.16708 -0.16708,-0.16708 -0.494378,0.26459 -0.494378,0.26458 v -0.0921 -0.0921 l 0.627868,-1.30629 0.627869,-1.30628 0.202844,-0.92605 0.202844,-0.92604 0.371682,1.26968 0.371683,1.26968 0.517396,0.92118 0.517397,0.92118 v 0.13356 0.13355 l -0.494379,-0.26458 -0.494378,-0.26459 -0.16708,0.16708 -0.16708,0.16708 v 2.56866 2.56867 l 0.164613,0.82306 0.164613,0.82307 0.665217,0.66521 0.665216,0.66522 h 0.91642 0.9164206 l 0.9345275,-0.93453 0.9345276,-0.93452 -0.134057,-1.87363 -0.1340571,-1.87362 -0.3260441,-0.20151 -0.3260441,-0.2015 0.1734289,-0.78962 0.173429,-0.78962 0.812317,-0.76479 0.812317,-0.76478 -0.2298599,0.66145 -0.2298598,0.66146 0.013985,1.45521 0.013985,1.45521 0.3040006,1.35797 0.3040006,1.35798 -0.2514369,0.91063 -0.2514368,0.91063 -0.6232691,0.58553 -0.6232691,0.58553 -1.8110974,0.58545 -1.8110965,0.58545 -0.490995,0.84309 -0.490995,0.84309 -0.229051,2.19962 -0.229051,2.19961 -0.291033,0.79375 -0.291033,0.79375 -0.319892,0.66146 -0.319892,0.66146 -0.642093,0.873 -0.642093,0.87301 -1.083076,0.62864 -1.083076,0.62864 -1.058334,0.17464 -1.058333,0.17464 z m 180.037119,6.56689 0.13809,-0.33073 1.7423,-4.31762 1.74229,-4.31762 v -0.15825 -0.15824 l -0.99219,0.99547 -0.99218,0.99546 -0.76428,0.39731 -0.76428,0.3973 -0.62478,-0.28467 -0.62479,-0.28467 v -1.0725 -1.07251 l 0.40035,-0.95816 0.40035,-0.95817 -0.1083,-0.1083 -0.10831,-0.10831 -1.71482,1.60414 -1.71483,1.60413 h -0.29701 -0.29701 v -0.13983 -0.13984 l 0.81107,-1.60673 0.81108,-1.60673 -0.16031,-0.16031 -0.16032,-0.16031 -0.7169,0.42382 -0.71691,0.42382 -1.58794,2.03108 -1.58794,2.03108 -0.48243,0.26998 -0.48242,0.26998 -0.1001,-0.1001 -0.1001,-0.1001 0.66477,-1.83141 0.66477,-1.83142 -0.59091,0.5182 -0.5909,0.5182 0.80358,-1.19063 0.80358,-1.19062 0.18637,-0.59531 0.18637,-0.59532 h 0.51133 0.51134 v 0.1225 0.1225 l -0.55614,1.39885 -0.55615,1.39886 -0.24936,0.66146 -0.24936,0.66146 1.79799,-1.87738 1.79799,-1.87739 0.86435,-0.44697 0.86435,-0.44698 0.17082,0.44515 0.17082,0.44514 -0.27532,0.68859 -0.27531,0.68859 -0.20493,0.49372 -0.20492,0.49372 1.08764,-0.78789 1.08765,-0.78788 0.81301,-0.33676 0.81301,-0.33676 0.13128,0.13128 0.13128,0.13128 -0.64079,1.2934 -0.64078,1.29339 -0.15997,0.79375 -0.15997,0.79375 0.23108,0.35904 0.23108,0.35904 0.62064,-0.19698 0.62063,-0.19698 1.38807,-1.42175 1.38808,-1.42175 0.50613,-1.65073 0.50614,-1.65072 0.40393,-0.0808 0.40394,-0.0808 0.18664,0.30198 0.18663,0.30198 -0.71108,1.30648 -0.71107,1.30648 0.11227,0.32442 0.11227,0.32442 -0.77904,1.38906 -0.77904,1.38907 h 0.63491 0.63492 l 1.18641,-0.75241 1.18642,-0.7524 0.98205,-1.1473 0.98205,-1.14731 v -0.73051 -0.73051 l -0.25681,-0.15872 -0.25681,-0.15872 -0.86767,0.43731 -0.86767,0.43731 -0.90373,0.83027 -0.90374,0.83028 0.56616,-0.82498 0.56617,-0.82498 0.64074,-0.41984 0.64074,-0.41983 0.69095,-0.17341 0.69094,-0.17342 0.65953,0.43214 0.65953,0.43214 v 0.73625 0.73625 l -0.62043,0.84095 -0.62043,0.84095 -0.63634,0.497 -0.63634,0.497 -1.09309,0.5549 -1.0931,0.5549 -0.98188,0.10073 -0.98187,0.10073 -0.23608,0.37293 -0.23607,0.37292 -0.51135,1.5875 -0.51135,1.5875 -0.16892,1.00695 -0.16893,1.00694 -0.51441,0.51441 -0.51441,0.51441 h -0.42518 -0.42518 z m 62.47598,-6.04596 -0.18002,-0.29127 0.61197,-0.56862 0.61197,-0.56863 -0.35698,0.47424 -0.35698,0.47423 0.28522,0.28522 0.28523,0.28523 1.00976,-0.49488 1.00976,-0.49487 0.59402,-0.89193 0.59402,-0.89193 -0.19365,-0.34578 -0.19366,-0.34578 -1.12448,-0.81447 -1.12448,-0.81447 -0.006,0.20009 -0.006,0.2001 -0.52849,0.66146 -0.52849,0.66146 0.69336,-1.45521 0.69337,-1.45521 0.19656,-0.39687 0.19657,-0.39688 0.87714,-0.5973 0.87714,-0.59729 0.9923,-0.2973 0.99229,-0.2973 0.65624,0.16471 0.65625,0.16471 0.14821,0.38623 0.14821,0.38622 -0.52891,0.60825 -0.52891,0.60824 0.33711,-0.58871 0.33711,-0.58871 -0.31182,-0.31182 -0.31182,-0.31182 -1.23073,0.47001 -1.23072,0.47002 -0.89822,0.78865 -0.89823,0.78865 v 0.50421 0.5042 l 1.32292,0.814 1.32291,0.814 v 0.6195 0.6195 l -0.94092,0.77559 -0.94093,0.7756 -1.008,0.302 -1.008,0.302 h -0.41671 -0.41671 z m -88.66818,-0.48931 -0.84301,-0.51402 -0.31419,-0.58705 -0.31418,-0.58706 0.13189,-1.64303 0.13188,-1.64304 0.88165,-1.65413 0.88165,-1.65414 1.49007,-1.49008 1.49008,-1.49007 1.5577,-0.76273 1.5577,-0.76273 1.37728,-0.0199 1.37729,-0.0199 0.54724,0.49525 0.54725,0.49525 -9.9e-4,0.68659 -9.9e-4,0.6866 -0.51942,0.8519 -0.51942,0.85189 -1.13324,0.83138 -1.13323,0.83138 -1.17585,0.51216 -1.17585,0.51215 -0.67624,-0.0945 -0.67623,-0.0945 0.39688,-0.15244 0.39687,-0.15245 1.05833,-0.28588 1.05834,-0.28589 1.06913,-0.6936 1.06914,-0.69361 0.56724,-0.83666 0.56724,-0.83666 0.1687,-0.68957 0.1687,-0.68957 -0.43492,-0.43491 -0.43491,-0.43491 -0.57641,0.003 -0.57641,0.003 -1.42614,0.66388 -1.42614,0.66387 -2.03456,2.04552 -2.03456,2.04552 -0.74723,1.54116 -0.74723,1.54117 -0.12332,1.28336 -0.12331,1.28337 0.66366,0.66366 0.66366,0.66366 1.01521,0.19046 1.0152,0.19045 1.59404,-0.32732 1.59405,-0.32732 1.52638,-0.81118 1.52637,-0.81118 0.85488,-1.03935 0.85487,-1.03935 1.2372,-1.32058 1.23719,-1.32059 0.87947,0.0844 0.87947,0.0844 0.0845,0.59488 0.0845,0.59487 0.57697,0.12633 0.57697,0.12632 0.79375,0.099 0.79375,0.0991 -0.95031,0.0396 -0.9503,0.0396 -0.31088,1.03761 -0.31087,1.03761 -1.12007,1.21508 -1.12007,1.21507 -0.80364,0.15039 -0.80363,0.15039 -0.62953,-0.50976 -0.62952,-0.50976 v -0.81026 -0.81025 l -1.38196,1.04339 -1.38196,1.04339 -1.47775,0.51938 -1.47775,0.51939 -1.79255,-9.9e-4 -1.79254,-9.9e-4 z m 13.13743,-0.97249 0.82566,-0.69474 0.53576,-1.05018 0.53576,-1.05019 -0.11765,-0.87304 -0.11766,-0.87305 -0.18074,-0.29245 -0.18074,-0.29244 h -0.24821 -0.2482 l -1.0319,0.93226 -1.0319,0.93225 -0.46804,0.98597 -0.46803,0.98597 -1.4e-4,0.75089 -1.3e-4,0.75088 0.37483,0.23725 0.37482,0.23726 0.31043,0.004 0.31043,0.004 z m -71.693379,0.62101 -0.661458,-0.33051 -0.46261,-0.92236 -0.46261,-0.92236 -4.11e-4,-5.4901 -4.11e-4,-5.49011 h -1.190625 -1.190625 v -0.26458 -0.26458 h 1.190625 1.190625 v -1.71979 -1.7198 l 0.859896,-0.0116 0.859896,-0.0116 0.992187,-0.35409 0.992188,-0.35408 v 2.08549 2.08549 h 1.5875 1.5875 v 0.26458 0.26458 h -1.5875 -1.5875 v 5.76792 5.76792 l 0.3175,0.3175 0.3175,0.3175 h 0.621175 0.621175 l 0.651452,-0.70293 0.651452,-0.70293 0.122656,0.12266 0.122656,0.12265 -0.673311,0.99087 -0.673311,0.99087 -0.659822,0.25086 -0.659821,0.25086 -1.107255,-0.004 -1.107255,-0.004 z m 29.715719,-0.17808 -0.84366,-0.51441 -0.27935,-1.00595 -0.27934,-1.00596 -0.001,-5.22552 -0.001,-5.22552 h -1.05834 -1.05833 v -0.26458 -0.26458 h 1.05833 1.05834 v -1.71979 -1.7198 l 0.85989,-0.0116 0.8599,-0.0116 0.99219,-0.35409 0.99218,-0.35408 v 2.08549 2.08549 h 1.5875 1.5875 v 0.26458 0.26458 h -1.5875 -1.5875 v 5.76792 5.76792 l 0.3175,0.3175 0.3175,0.3175 h 0.62118 0.62117 l 0.61302,-0.66146 0.61302,-0.66146 h 0.17489 0.17489 l -0.39838,0.77039 -0.39838,0.77039 -0.70243,0.55252 -0.70242,0.55253 -1.35338,-9.9e-4 -1.35339,-9.8e-4 z m 10.36865,0.20689 -0.79375,-0.29511 -0.71126,-0.49783 -0.71127,-0.49782 -0.73224,-1.49666 -0.73225,-1.49665 -0.0117,-2.00269 -0.0117,-2.00269 0.20329,-0.95416 0.20329,-0.95415 0.77721,-1.17337 0.7772,-1.17337 1.07479,-0.60406 1.07479,-0.60407 1.3843,-0.14182 1.38429,-0.14181 1.0954,0.29608 1.0954,0.29609 0.79756,0.81576 0.79756,0.81576 0.28985,1.15112 0.28986,1.15111 v 0.67659 0.67659 h -3.70417 -3.70416 l 0.006,1.52135 0.006,1.52135 0.49011,1.07913 0.49012,1.07913 0.73038,0.57452 0.73038,0.57452 h 1.04004 1.04005 l 0.57792,-0.29692 0.57792,-0.29691 0.72484,-0.67598 0.72485,-0.67599 0.12067,0.12067 0.12067,0.12068 -0.58093,1.02551 -0.58094,1.02551 -1.0071,0.81109 -1.0071,0.8111 -1.77102,0.0667 -1.77103,0.0668 z m 4.36415,-9.54623 -0.001,-0.85989 -0.28941,-1.05833 -0.2894,-1.05834 -0.41159,-0.46302 -0.41158,-0.46302 h -0.57945 -0.57944 l -0.45625,0.50415 -0.45624,0.50414 -0.37851,1.2577 -0.37851,1.25769 v 0.61941 0.61941 h 2.11666 2.11667 z m 52.18327,9.44386 -0.58804,-0.41188 v -0.73733 -0.73733 l 0.51133,-1.48622 0.51134,-1.48622 1.26848,-2.4578 1.26849,-2.4578 1.3626,-1.40826 1.3626,-1.40826 0.89247,0.0853 0.89248,0.0853 0.0822,0.85074 0.0822,0.85073 -1.12026,1.66281 -1.12027,1.66281 -2.45206,2.40522 -2.45207,2.40523 -0.17041,0.67898 -0.17042,0.67899 0.29639,0.55381 0.29639,0.55381 h 0.55094 0.55094 l 2.47707,-2.50542 2.47707,-2.50541 1.08383,-0.55293 1.08383,-0.55293 0.7075,0.0818 0.7075,0.0818 0.0865,0.61061 0.0865,0.61061 -0.43749,0.6677 -0.43749,0.66769 -1.36885,0.63734 -1.36886,0.63734 -0.39687,-0.003 -0.39688,-0.003 1.05834,-0.48245 1.05833,-0.48244 0.8599,-0.72589 0.85989,-0.72589 v -0.50565 -0.50564 h -0.27772 -0.27772 l -0.71447,0.37565 -0.71446,0.37565 -1.10911,1.1457 -1.10911,1.1457 -0.27996,0.74483 -0.27995,0.74483 v 0.38532 0.38533 l 0.65367,0.29783 0.65367,0.29783 1.26379,-0.48264 1.26379,-0.48265 1.38983,-1.31445 1.38983,-1.31444 v 0.26675 0.26676 l -1.32851,1.24267 -1.32852,1.24267 -0.91194,0.38104 -0.91195,0.38103 h -0.89885 -0.89886 l -0.69714,-0.54837 -0.69714,-0.54837 v -0.53737 -0.53737 l -0.95544,0.83888 -0.95543,0.83888 -0.64929,0.24686 -0.64929,0.24686 h -0.18849 -0.18849 z m 3.37452,-5.86812 1.36592,-1.52521 1.14675,-1.7198 1.14675,-1.71979 0.0916,-0.51957 0.0916,-0.51958 -0.46158,-0.0949 -0.46157,-0.0949 -1.25822,1.29382 -1.25822,1.29382 -1.38906,2.66084 -1.38906,2.66085 v 0.17481 0.17481 l 0.50456,-0.27004 0.50457,-0.27003 z m 7.6791,6.0483 v -0.21463 l 0.52216,-1.51767 0.52215,-1.51767 -0.0542,-0.1774 -0.0541,-0.1774 0.61393,-1.25677 0.61393,-1.25677 h 0.37327 0.37327 v 0.36324 0.36325 l -0.50086,1.15811 -0.50086,1.15811 -0.19224,0.63881 -0.19223,0.63881 1.6432,-1.75658 1.64319,-1.75658 0.89716,-0.55447 0.89716,-0.55447 0.26941,0.1665 0.2694,0.1665 v 0.3918 0.3918 l -0.54865,1.07546 -0.54866,1.07545 0.35022,-0.20735 0.35022,-0.20735 0.79492,-0.59591 0.79493,-0.5959 0.76312,-0.29014 0.76313,-0.29014 0.12588,0.12588 0.12589,0.12589 -0.60632,1.25247 -0.60631,1.25248 -0.0193,1.06827 -0.0193,1.06827 0.4923,0.0993 0.49231,0.0994 2.46025,-2.52096 2.46025,-2.52096 1.10244,-0.56242 1.10245,-0.56243 0.7075,0.0818 0.7075,0.0818 0.0866,0.61061 0.0865,0.61061 -0.43749,0.6677 -0.43749,0.66769 -1.36886,0.63734 -1.36885,0.63734 -0.39687,-0.003 -0.39688,-0.003 1.05834,-0.48245 1.05833,-0.48244 0.85989,-0.72589 0.8599,-0.72589 v -0.50565 -0.50564 h -0.27772 -0.27772 l -0.7228,0.37377 -0.72279,0.37377 -1.21772,1.30183 -1.21771,1.30184 -0.19432,0.88474 -0.19433,0.88474 0.47875,0.35007 0.47875,0.35007 0.41245,-0.003 0.41245,-0.003 1.32292,-0.62725 1.32292,-0.62724 1.05833,-1.1009 1.05833,-1.10089 0.41956,-1.24584 0.41956,-1.24583 0.44034,-0.0855 0.44033,-0.0856 v 0.38264 0.38265 l -0.50086,1.15811 -0.50086,1.15811 -0.19223,0.63881 -0.19223,0.63881 1.64319,-1.75658 1.6432,-1.75658 0.89715,-0.55447 0.89716,-0.55447 0.26941,0.1665 0.26941,0.1665 v 0.35156 0.35155 l -0.81259,1.73645 -0.81258,1.73645 0.085,0.73839 0.085,0.73839 0.47336,0.0898 0.47337,0.0898 1.69753,-1.73128 1.69754,-1.73129 0.44376,-0.85814 0.44376,-0.85813 -0.29956,-0.0999 -0.29955,-0.0998 v -0.21385 -0.21385 l 0.61871,-0.15529 0.61871,-0.15528 0.45204,-0.99788 0.45205,-0.99787 0.46147,-0.60822 0.46147,-0.60822 0.45545,0.17477 0.45545,0.17477 -0.58253,0.96262 -0.58253,0.96261 -0.38668,0.60971 -0.38668,0.60972 1.42893,-0.15042 1.42893,-0.15041 -0.52917,0.24971 -0.52916,0.2497 -0.81889,0.0186 -0.81889,0.0186 -0.42552,0.47019 -0.42553,0.4702 -0.69171,1.51089 -0.69171,1.51089 0.084,0.72863 0.084,0.72863 0.40564,0.0768 0.40564,0.0768 1.14744,-0.98217 1.14745,-0.98217 1.1515,-1.5825 1.1515,-1.5825 0.735,-0.48465 0.735,-0.48464 0.54239,-0.002 0.5424,-0.002 0.3175,0.3175 0.3175,0.3175 v 0.26458 0.26459 l -0.3175,-0.3175 -0.3175,-0.3175 h -0.30337 -0.30338 l -1.00258,0.9737 -1.00259,0.9737 -0.51599,1.16648 -0.51599,1.16647 0.15279,0.60877 0.15279,0.60876 0.42551,0.16328 0.42551,0.16329 0.68979,-0.33254 0.6898,-0.33254 0.78126,-1.1132 0.78126,-1.1132 0.0361,-1.00347 0.0361,-1.00346 1.31072,0.0931 1.31073,0.0931 0.11024,0.10534 0.11024,0.10533 h -0.93419 -0.93419 l -0.46227,1.21045 -0.46228,1.21044 -0.96876,1.01839 -0.96877,1.01838 -0.7235,0.18159 -0.7235,0.18159 -0.66855,-0.43805 -0.66854,-0.43805 -0.15651,-0.78251 -0.1565,-0.78252 -1.03894,0.93862 -1.03894,0.93862 -0.68257,0.25952 -0.68257,0.25951 -0.49361,-0.15666 -0.4936,-0.15667 -0.14758,-0.588 -0.14758,-0.58801 0.29181,-0.76753 0.29182,-0.76754 -1.40493,1.32872 -1.40492,1.32872 -0.72973,0.18315 -0.72973,0.18315 -0.52374,-0.2803 -0.52374,-0.28029 0.003,-0.85059 0.003,-0.85059 0.65888,-1.41533 0.65887,-1.41533 v -0.10602 -0.10602 h -0.24428 -0.24429 l -0.83866,0.70569 -0.83867,0.70569 -1.3178,1.7417 -1.3178,1.74171 -0.50967,0.18991 -0.50966,0.18991 v -0.22279 -0.22279 l 0.39559,-1.12123 0.39559,-1.12123 -1.08627,0.98138 -1.08627,0.98138 -0.88832,0.37117 -0.88833,0.37116 h -0.89885 -0.89886 l -0.69714,-0.54837 -0.69714,-0.54837 v -0.53737 -0.53737 l -0.95544,0.83888 -0.95543,0.83888 -0.66701,0.2536 -0.66702,0.2536 -0.4936,-0.15666 -0.49361,-0.15667 -0.16519,-0.65818 -0.16519,-0.65819 0.50976,-1.55478 0.50977,-1.55479 -0.53664,0.2872 -0.53663,0.2872 -1.39899,1.3231 -1.39899,1.32311 -0.18085,-0.18084 -0.18084,-0.18085 0.71295,-1.45367 0.71295,-1.45368 v -0.25872 -0.25872 h -0.24429 -0.24428 l -0.83866,0.70569 -0.83867,0.70569 -1.3178,1.7417 -1.3178,1.74171 -0.50967,0.18991 -0.50967,0.18991 z m -163.247908,-0.1727 v -0.13981 l 0.839617,-0.85238 0.839617,-0.85238 3.244017,-8.33437 3.244018,-8.33437 0.894888,-0.0792 0.894889,-0.0792 3.289706,8.54589 3.289706,8.54589 0.727604,0.74795 0.727604,0.74796 v 0.11194 0.11194 h -3.96875 -3.968749 v -0.23151 -0.23151 l 0.799994,-0.16 0.799995,-0.16 0.171906,-0.44798 0.171905,-0.44797 -0.474169,-1.34333 -0.47417,-1.34333 -0.519905,-1.39752 -0.519906,-1.39752 -2.952741,0.0746 -2.952742,0.0746 -0.783481,2.33878 -0.78348,2.33878 0.390708,0.70393 0.390707,0.70393 0.854148,0.25315 0.854147,0.25315 v 0.20987 0.20987 h -2.513541 -2.513542 z m 9.72119,-7.86384 -0.125008,-0.33072 -1.134401,-3.1213 -1.1344,-3.12129 -0.20593,0.21087 -0.205929,0.21088 -1.208803,3.13499 -1.208802,3.13499 v 0.10616 0.10615 h 2.67414 2.674141 z m 8.799643,7.69204 v -0.21756 h 0.514164 0.514164 l 0.411877,-0.58803 0.411878,-0.58804 v -4.95577 -4.95576 l -0.287444,-0.63087 -0.287445,-0.63087 -0.704743,-0.27947 -0.704743,-0.27948 1.5875,-0.0439 1.5875,-0.0439 1.256771,-0.20687 1.256771,-0.20686 0.02052,1.21482 0.02052,1.21483 -0.03906,4.94368 -0.03906,4.94368 0.292436,0.54642 0.292435,0.54642 h 0.387566 0.387566 l -3.8e-5,0.19844 -3.8e-5,0.19844 -3.439545,0.0191 -3.439546,0.0191 z m 8.466667,0.0505 v -0.14254 l 0.595312,-0.26117 0.595313,-0.26118 0.07392,-5.55625 0.07392,-5.55625 -0.566249,-0.46302 -0.566248,-0.46302 h -0.611847 -0.611846 l -0.814051,0.68497 -0.81405,0.68498 v -0.2386 -0.2386 l 0.747521,-0.71617 0.747522,-0.71617 0.904377,-0.25937 0.904378,-0.25938 h 0.870141 0.870141 l 0.89997,0.37604 0.899971,0.37603 0.414448,0.80145 0.414448,0.80146 0.0039,4.84178 0.0039,4.84178 0.333451,0.66146 0.333452,0.66146 0.58869,0.0846 0.588689,0.0846 v 0.18688 0.18687 h -3.439583 -3.439583 z m 7.937499,-0.0613 v -0.20671 h 0.514164 0.514164 l 0.411878,-0.58803 0.411878,-0.58804 v -5.76196 -5.76197 l -0.992188,-0.0348 -0.992187,-0.0348 0.90606,-0.1636 0.906061,-0.16361 0.298687,-1.45521 0.298686,-1.45521 0.425278,-0.79375 0.425277,-0.79375 0.751225,-0.71357 0.751226,-0.71357 1.053651,-0.44014 1.053652,-0.44014 1.989056,-0.13379 1.989057,-0.13378 1.112449,0.30227 1.112449,0.30226 0.80578,0.67802 0.80578,0.67802 v 0.74092 0.74092 l -0.505789,0.62462 -0.50579,0.62463 h -1.318516 -1.318515 l -0.556945,-0.50403 -0.556944,-0.50403 v -0.86586 -0.86585 l 0.820575,-0.6422 0.820575,-0.6422 -0.856402,-0.17128 -0.856403,-0.17128 -1.070157,0.28817 -1.070156,0.28816 -0.712744,0.76299 -0.712744,0.763 -0.297939,1.18322 -0.297939,1.18322 v 1.24678 1.24679 l 4.365625,-0.17894 4.365625,-0.17893 v 6.09103 6.09103 l 0.529167,0.52917 0.529166,0.52916 h 0.396875 0.396875 v 0.20285 0.20285 h -3.571875 -3.571874 v -0.20285 -0.20285 h 0.377976 0.377976 l 0.415774,-0.41577 0.415773,-0.41577 v -5.35449 -5.35449 l -0.37333,-0.51056 -0.37333,-0.51056 -2.140211,-0.0972 -2.140212,-0.0972 v 5.84885 5.84885 l 0.529167,0.52917 0.529167,0.52916 h 0.529166 0.529167 v 0.20671 0.2067 H 59.82472 55.988261 Z m 26.722916,-0.003 v -0.20337 h 0.377977 0.377976 l 0.415774,-0.41577 0.415773,-0.41577 v -5.35449 -5.35449 l -0.330729,-0.41455 -0.330729,-0.41456 -0.529167,-0.28943 -0.529166,-0.28943 1.322916,-0.0103 1.322917,-0.0104 1.389063,-0.16685 1.389062,-0.16684 0.0029,1.16133 0.0029,1.16134 0.681805,-0.86515 0.681805,-0.86514 0.75733,-0.39163 0.75733,-0.39163 h 0.662148 0.662148 l 0.644732,0.29376 0.644732,0.29376 0.293759,0.64473 0.29376,0.64474 v 0.73141 0.73141 l -0.539474,0.57905 -0.539473,0.57906 h -1.041927 -1.041927 l -0.432142,-0.65953 -0.432141,-0.65953 0.182073,-0.72953 0.182072,-0.72953 0.442407,-0.50264 0.442407,-0.50264 -0.79375,0.19252 -0.79375,0.19252 -0.453512,0.40867 -0.453513,0.40866 -0.425644,1.11454 -0.425645,1.11453 0.08541,4.1687 0.08541,4.1687 0.624624,0.5052 0.624624,0.50519 h 0.632147 0.632146 v 0.21358 0.21357 l -3.96875,-0.0102 -3.96875,-0.0102 z m 12.435417,0.002 v -0.20528 h 0.355868 0.355868 l 0.437882,-0.48385 0.437881,-0.48386 -0.0186,-5.13854 -0.0186,-5.13854 -0.19336,-0.49169 -0.193361,-0.49169 -0.647938,-0.35883 -0.647939,-0.35883 1.322918,-0.0117 1.32292,-0.0117 1.38906,-0.16685 1.389057,-0.16684 v 6.21355 6.21356 l 0.48385,0.43788 0.48386,0.43788 h 0.30989 0.3099 v 0.20528 0.20528 h -3.439577 -3.439586 z m 2.381249,-16.25585 -0.39687,-0.15806 -0.46303,-0.40336 -0.463016,-0.40335 v -1.00233 -1.00232 l 0.588036,-0.41188 0.58804,-0.41188 h 1.13175 1.13176 l 0.529167,0.52917 0.52916,0.52917 v 0.88503 0.88504 l -0.49635,0.44919 -0.496347,0.44919 -0.89271,0.11222 -0.89271,0.11223 z"
       id="path1" /></g></svg>
