<?xml version="1.0" encoding="UTF-8" standalone="no"?>
<!-- Created with Inkscape (http://www.inkscape.org/) -->

<svg
   width="205.556mm"
   height="205.556mm"
   viewBox="0 0 205.556 205.556"
   version="1.1"
   id="svg1"
   xml:space="preserve"
   inkscape:version="1.4.2 (f4327f4, 2025-05-13)"
   sodipodi:docname="logo - copia.svg"
   xmlns:inkscape="http://www.inkscape.org/namespaces/inkscape"
   xmlns:sodipodi="http://sodipodi.sourceforge.net/DTD/sodipodi-0.dtd"
   xmlns:xlink="http://www.w3.org/1999/xlink"
   xmlns="http://www.w3.org/2000/svg"
   xmlns:svg="http://www.w3.org/2000/svg"><sodipodi:namedview
     id="namedview1"
     pagecolor="#ffffff"
     bordercolor="#000000"
     borderopacity="0.25"
     inkscape:showpageshadow="2"
     inkscape:pageopacity="0.0"
     inkscape:pagecheckerboard="0"
     inkscape:deskcolor="#d1d1d1"
     inkscape:document-units="mm"
     inkscape:zoom="0.80125019"
     inkscape:cx="375.03891"
     inkscape:cy="392.51161"
     inkscape:window-width="1920"
     inkscape:window-height="1009"
     inkscape:window-x="-8"
     inkscape:window-y="-8"
     inkscape:window-maximized="1"
     inkscape:current-layer="svg1" /><defs
     id="defs1"><linearGradient
       id="linearGradient3"
       inkscape:collect="always"><stop
         style="stop-color:#000000;stop-opacity:0.46280992;"
         offset="0"
         id="stop3" /><stop
         style="stop-color:#000000;stop-opacity:1;"
         offset="1"
         id="stop4" /></linearGradient><linearGradient
       id="linearGradient1"
       inkscape:collect="always"><stop
         style="stop-color:#ffffff;stop-opacity:1;"
         offset="0"
         id="stop1" /><stop
         style="stop-color:#ffffff;stop-opacity:0;"
         offset="1"
         id="stop2" /></linearGradient><linearGradient
       id="linearGradient5"
       inkscape:collect="always"><stop
         style="stop-color:#11d416;stop-opacity:1;"
         offset="0"
         id="stop5" /><stop
         style="stop-color:#20bddf;stop-opacity:1;"
         offset="0.43614459"
         id="stop6" /><stop
         style="stop-color:#b736e1;stop-opacity:1;"
         offset="0.94939756"
         id="stop7" /></linearGradient><linearGradient
       inkscape:collect="always"
       xlink:href="#linearGradient5"
       id="linearGradient6"
       x1="43.017849"
       y1="226.35149"
       x2="375.92123"
       y2="71.116096"
       gradientUnits="userSpaceOnUse"
       gradientTransform="matrix(0.93883436,0,0,0.93883436,12.505286,72.185164)" /><linearGradient
       inkscape:collect="always"
       xlink:href="#linearGradient1"
       id="linearGradient2"
       x1="1.9197981"
       y1="102.53118"
       x2="204.12363"
       y2="102.53118"
       gradientUnits="userSpaceOnUse" /><radialGradient
       inkscape:collect="always"
       xlink:href="#linearGradient3"
       id="radialGradient4"
       cx="103.02171"
       cy="102.53118"
       fx="103.02171"
       fy="102.53118"
       r="101.10191"
       gradientTransform="matrix(1,0,0,0.99841423,0,0.16259058)"
       gradientUnits="userSpaceOnUse" /></defs><rect
     style="fill:url(#radialGradient4);stroke:url(#linearGradient2);stroke-width:2.757;stroke-opacity:1;stroke-dasharray:none"
     id="rect1"
     width="199.44682"
     height="199.12617"
     x="3.2982981"
     y="2.9680917"
     rx="28.775503" /><g
     inkscape:label="Capa 1"
     inkscape:groupmode="layer"
     id="layer1"
     transform="translate(-101.8748,-105.82331)"><path
       style="fill:url(#linearGradient6);stroke:#ffffff;stroke-width:0.938834;stroke-opacity:0.67147"
       d="m 113.84551,252.04304 c 0,-0.0666 5.21754,-6.88517 11.59454,-15.15239 6.37701,-8.26723 16.54897,-21.46973 22.6044,-29.33889 9.28868,-12.07088 11.20505,-14.38786 12.25854,-14.82118 1.06991,-0.4401 3.57459,-0.51364 17.49257,-0.51364 10.54625,0 16.4682,0.12005 16.88342,0.34227 0.35174,0.18826 0.93811,0.92751 1.30303,1.64281 0.36491,0.71529 0.66347,1.91634 0.66347,2.66901 0,1.25289 -0.40988,1.90436 -4.85318,7.71359 -2.66925,3.48981 -5.24019,6.76887 -5.7132,7.2868 -0.473,0.51793 -1.563,1.30038 -2.4222,1.73879 -1.50794,0.76944 -1.8114,0.79712 -8.73917,0.79712 -7.17697,0 -7.17697,0 -6.34683,-0.83014 0.45657,-0.45657 1.78099,-2.08969 2.94316,-3.62916 l 2.11303,-2.79903 2.9808,-0.0257 2.9808,-0.0257 2.31839,-3.02533 c 1.27513,-1.66395 2.50471,-3.21298 2.73241,-3.44233 0.2277,-0.22932 0.414,-0.57665 0.414,-0.77182 0,-0.24443 -3.08338,-0.35486 -9.90892,-0.35486 -5.44989,0 -10.14465,0.0905 -10.4328,0.20103 -0.28813,0.11058 -0.52388,0.34897 -0.52388,0.52976 0,0.18079 -8.6749,11.60367 -19.27756,25.38415 -10.60265,13.78049 -19.43326,25.38961 -19.62359,25.79805 -0.33823,0.72587 -0.47117,0.74268 -5.89363,0.7452 -3.05118,0.002 -5.5476,-0.0519 -5.5476,-0.11848 z m -5.22725,-21.57303 c 0,-0.26839 10.01825,-13.52023 22.13188,-29.46306 l 22.0248,-28.98694 5.73747,-0.0137 c 4.82761,-0.0116 5.7205,0.0619 5.6304,0.46325 -0.0588,0.26234 -10.01823,13.5209 -22.13187,29.46349 l -22.02479,28.98649 -5.73749,0.0133 c -4.82278,0.0112 -5.6304,-0.0526 -5.6304,-0.46282 z m 78.75528,-13.77888 c 5.90644,-7.68293 10.96932,-13.96758 11.33588,-14.07148 0.36431,-0.10326 5.09633,-0.18979 10.51561,-0.19228 5.51073,-0.003 9.85318,0.1249 9.85318,0.28911 0,0.16149 -1.03736,1.65065 -2.30525,3.30923 -1.2679,1.65858 -2.46546,3.31492 -2.66126,3.68077 -0.33554,0.62696 -0.68695,0.66518 -6.11576,0.66518 h -5.75977 l -7.15464,9.29938 c -3.93504,5.11467 -7.39117,9.66039 -7.68026,10.1016 -0.51841,0.79118 -0.59555,0.80222 -5.61342,0.80222 h -5.08777 z m 5.91347,13.23862 c 0.24992,-0.35479 1.42317,-1.9134 2.6072,-3.46355 l 2.15281,-2.81848 14.48999,-0.014 c 10.02679,-0.01 14.49,0.0944 14.49,0.33827 0,0.19378 -1.07373,1.7587 -2.38604,3.47761 l -2.38605,3.1253 h -14.71116 c -14.51431,0 -14.70506,-0.009 -14.25675,-0.64511 z m 42.70337,-1.62227 c -0.95107,-1.50282 -1.93475,-2.85159 -2.18594,-2.99725 -0.2512,-0.14567 -0.45673,-0.49527 -0.45673,-0.77688 0,-0.2816 -0.27678,-0.90762 -0.61505,-1.39114 -0.33829,-0.48352 -1.00897,-1.59235 -1.4904,-2.46408 -0.48145,-0.87172 -0.87535,-1.80916 -0.87535,-2.08319 0,-0.27403 0.3198,-1.12573 0.71066,-1.89265 0.39085,-0.76692 4.13426,-5.8656 8.31869,-11.33039 4.18443,-5.4648 8.14954,-10.41817 8.81134,-11.00747 1.2033,-1.07147 1.2033,-1.07147 15.3621,-1.0764 9.31232,-0.003 14.15879,0.10953 14.15879,0.32948 0,0.18392 -1.22957,1.90865 -2.7324,3.83272 l -2.7324,3.49831 -9.61833,-0.033 -9.61834,-0.033 -6.52766,8.47822 c -3.5902,4.66303 -6.5272,8.65388 -6.52664,8.86858 5.7e-4,0.21472 0.78302,1.58269 1.73881,3.03998 l 1.73777,2.6496 11.3436,0.0871 c 6.23898,0.0479 11.3436,0.18045 11.3436,0.2945 0,0.11405 -1.08053,1.66616 -2.4012,3.44913 l -2.40121,3.24175 -11.80724,0.0241 -11.80725,0.0241 z m 22.55068,-6.63453 c 0.28544,-0.2219 7.51387,-9.48525 16.0632,-20.58522 8.54932,-11.09997 15.81968,-20.60126 16.15635,-21.11399 0.61212,-0.93224 0.61212,-0.93224 5.1612,-0.93224 2.50199,0 4.63504,0.0859 4.74012,0.19105 0.10507,0.10507 -7.02401,9.5674 -15.84239,21.02741 -8.8184,11.46001 -16.03345,20.97117 -16.03345,21.13592 0,0.16474 -0.23575,0.39 -0.52388,0.50057 -0.28814,0.11057 -2.71005,0.1963 -5.38201,0.1905 -3.88351,-0.009 -4.75399,-0.0914 -4.33914,-0.414 z m -42.87448,-12.04649 c 0.37303,-0.40986 4.00165,-5.06737 8.0636,-10.34999 4.06194,-5.28264 7.50873,-9.65447 7.65949,-9.7152 0.15078,-0.0608 0.27415,-0.5525 0.27415,-1.09285 0,-0.54035 -0.22739,-1.42216 -0.50531,-1.95959 -0.50531,-0.97716 -0.50531,-0.97716 -15.09719,-0.97716 -8.02556,0 -14.54223,-0.11964 -14.48151,-0.26588 0.0608,-0.14623 1.15368,-1.62351 2.4288,-3.28282 1.27512,-1.65933 2.61648,-3.10256 2.98081,-3.20719 0.36431,-0.10465 7.3692,-0.19026 15.56639,-0.19026 8.19721,0 15.23385,0.0885 15.63701,0.19652 0.44895,0.12037 1.346,1.17745 2.31488,2.72787 1.46583,2.34563 1.58215,2.68982 1.5854,4.69103 0.004,2.15967 0.004,2.15967 -7.74139,12.2544 -4.25969,5.55209 -8.12535,10.50458 -8.59035,11.00552 -0.84548,0.9108 -0.84548,0.9108 -5.80924,0.9108 -4.96377,0 -4.96377,0 -4.28554,-0.7452 z"
       id="path5"
       sodipodi:nodetypes="ssssscsscscssscccscsscssscsssscsssccsssscsssscssscscscssscscccsssssssscsscccsssccsscccccsssssssccsssscscsssssccsss" /></g></svg>
