<?xml version="1.0" encoding="UTF-8" standalone="no"?>
<!-- Created with Inkscape (http://www.inkscape.org/) -->

<svg
   width="205.556mm"
   height="205.556mm"
   viewBox="0 0 205.556 205.556"
   version="1.1"
   id="svg1"
   xml:space="preserve"
   inkscape:version="1.4.2 (f4327f4, 2025-05-13)"
   sodipodi:docname="favicon.svg"
   xmlns:inkscape="http://www.inkscape.org/namespaces/inkscape"
   xmlns:sodipodi="http://sodipodi.sourceforge.net/DTD/sodipodi-0.dtd"
   xmlns:xlink="http://www.w3.org/1999/xlink"
   xmlns="http://www.w3.org/2000/svg"
   xmlns:svg="http://www.w3.org/2000/svg"><sodipodi:namedview
     id="namedview1"
     pagecolor="#ffffff"
     bordercolor="#000000"
     borderopacity="0.25"
     inkscape:showpageshadow="2"
     inkscape:pageopacity="0.0"
     inkscape:pagecheckerboard="0"
     inkscape:deskcolor="#d1d1d1"
     inkscape:document-units="mm"
     inkscape:zoom="0.80125019"
     inkscape:cx="375.03891"
     inkscape:cy="392.51161"
     inkscape:window-width="1920"
     inkscape:window-height="1009"
     inkscape:window-x="-8"
     inkscape:window-y="-8"
     inkscape:window-maximized="1"
     inkscape:current-layer="layer1" /><defs
     id="defs1"><linearGradient
       id="linearGradient3"
       inkscape:collect="always"><stop
         style="stop-color:#000000;stop-opacity:1;"
         offset="0.04339251"
         id="stop3" /><stop
         style="stop-color:#000000;stop-opacity:0.71625346;"
         offset="0.90335304"
         id="stop4" /></linearGradient><linearGradient
       id="linearGradient5"
       inkscape:collect="always"><stop
         style="stop-color:#11d416;stop-opacity:1;"
         offset="0"
         id="stop5" /><stop
         style="stop-color:#20bddf;stop-opacity:1;"
         offset="0.43614459"
         id="stop6" /><stop
         style="stop-color:#b736e1;stop-opacity:1;"
         offset="0.94939756"
         id="stop7" /></linearGradient><linearGradient
       inkscape:collect="always"
       xlink:href="#linearGradient5"
       id="linearGradient6"
       x1="43.017849"
       y1="226.35149"
       x2="375.92123"
       y2="71.116096"
       gradientUnits="userSpaceOnUse"
       gradientTransform="matrix(0.90455398,0,0,2.0053897,19.190656,-91.202843)" /><linearGradient
       inkscape:collect="always"
       xlink:href="#linearGradient3"
       id="linearGradient1"
       x1="1.9197981"
       y1="102.53118"
       x2="204.12363"
       y2="102.53118"
       gradientUnits="userSpaceOnUse" /></defs><rect
     style="fill:url(#linearGradient1);stroke:#ffffff;stroke-width:2.757;stroke-opacity:1;stroke-dasharray:none"
     id="rect1"
     width="199.44682"
     height="199.12617"
     x="3.2982981"
     y="2.9680917"
     rx="28.775503" /><g
     inkscape:label="Capa 1"
     inkscape:groupmode="layer"
     id="layer1"
     transform="translate(-101.8748,-105.82331)"><path
       style="fill:url(#linearGradient6);stroke:#ffffff;stroke-width:1.34685;stroke-opacity:0.67147"
       d="m 116.83056,292.98112 c 0,-0.14226 5.02704,-14.70701 11.17119,-32.36614 6.14417,-17.65915 15.94471,-45.86024 21.77903,-62.6691 8.94951,-25.7839 10.79591,-30.73307 11.81094,-31.65866 1.03085,-0.94007 3.44406,-1.09716 16.85384,-1.09716 10.16118,0 15.86688,0.25643 16.26695,0.7311 0.33889,0.40214 0.90386,1.98121 1.25545,3.50912 0.35158,1.52788 0.63925,4.09339 0.63925,5.70112 0,2.67623 -0.39492,4.06779 -4.67598,16.47655 -2.57179,7.45437 -5.04885,14.45858 -5.50459,15.5649 -0.45574,1.10632 -1.50592,2.77768 -2.33376,3.71414 -1.45288,1.64354 -1.74525,1.70269 -8.42006,1.70269 -6.91492,0 -6.91492,0 -6.11509,-1.77322 0.4399,-0.97525 1.71596,-4.46368 2.83568,-7.75204 l 2.03589,-5.97884 2.87196,-0.0549 2.87196,-0.0549 2.23374,-6.46224 c 1.22858,-3.55426 2.41325,-6.86306 2.63264,-7.35294 0.21938,-0.48984 0.39888,-1.23177 0.39888,-1.64866 0,-0.5221 -2.97079,-0.75799 -9.54712,-0.75799 -5.25088,0 -9.77421,0.19332 -10.05185,0.42941 -0.2776,0.23621 -0.50475,0.74542 -0.50475,1.13159 0,0.38617 -8.35814,24.78592 -18.57367,54.22161 -10.21551,29.4357 -18.72367,54.23327 -18.90704,55.10571 -0.3259,1.55049 -0.45398,1.5864 -5.67844,1.59179 -2.93977,0.004 -5.34505,-0.1109 -5.34505,-0.25308 z m -5.03638,-46.0809 c 0,-0.57329 9.65245,-28.87978 21.32377,-62.93432 l 21.22059,-61.91732 5.52797,-0.0293 c 4.65134,-0.0249 5.51164,0.13221 5.42481,0.98953 -0.0567,0.56036 -9.65242,28.88119 -21.32374,62.93525 l -21.22059,61.91634 -5.528,0.0284 c -4.64668,0.024 -5.42481,-0.1123 -5.42481,-0.98859 z m 75.87964,-29.43225 c 5.69076,-16.41107 10.56879,-29.83534 10.92197,-30.05728 0.35099,-0.22056 4.91023,-0.4054 10.13164,-0.41072 5.30951,-0.007 9.4934,0.2668 9.4934,0.61754 0,0.34496 -0.99948,3.52587 -2.22108,7.06867 -1.22161,3.54279 -2.37543,7.0808 -2.56408,7.86227 -0.3233,1.33921 -0.66187,1.42086 -5.89247,1.42086 h -5.54944 l -6.8934,19.86386 c -3.79136,10.92514 -7.1213,20.635 -7.39983,21.57744 -0.49949,1.69 -0.5738,1.71357 -5.40845,1.71357 h -4.902 z m 5.69754,28.27824 c 0.24079,-0.75785 1.37121,-4.0871 2.51201,-7.39829 l 2.0742,-6.0204 13.9609,-0.03 c 9.66068,-0.0214 13.96091,0.20165 13.96091,0.72255 0,0.41394 -1.03452,3.75666 -2.29891,7.42833 l -2.29891,6.67577 h -14.17401 c -13.98435,0 -14.16812,-0.0192 -13.73619,-1.37798 z m 41.14411,-3.46525 c -0.91635,-3.21006 -1.86411,-6.0911 -2.10612,-6.40225 -0.24203,-0.31115 -0.44005,-1.05791 -0.44005,-1.65944 0,-0.6015 -0.26668,-1.93871 -0.5926,-2.97154 -0.32594,-1.03281 -0.97213,-3.40132 -1.43598,-5.26336 -0.46386,-1.86204 -0.84339,-3.86445 -0.84339,-4.44979 0,-0.58535 0.30813,-2.4046 0.68472,-4.04279 0.37659,-1.63816 3.9833,-12.52915 8.01494,-24.20218 4.03164,-11.67304 7.85197,-22.25365 8.4896,-23.51241 1.15938,-2.2887 1.15938,-2.2887 14.80118,-2.29924 8.97229,-0.007 13.64179,0.23396 13.64179,0.70378 0,0.39285 -1.18467,4.07695 -2.63262,8.18686 l -2.63263,7.47253 -9.26713,-0.0704 -9.26713,-0.0704 -6.28932,18.10983 c -3.45911,9.96044 -6.28887,18.48504 -6.28833,18.94365 5.5e-4,0.45866 0.75443,3.38071 1.67532,6.49353 l 1.67431,5.65966 10.92942,0.18605 c 6.01118,0.10231 10.92939,0.38545 10.92939,0.62905 0,0.24363 -1.04106,3.55899 -2.31352,7.3675 l -2.31352,6.92452 -11.37613,0.0514 -11.37613,0.0515 z m 21.72728,-14.17163 c 0.27501,-0.47398 7.2395,-20.26088 15.47666,-43.97089 8.23716,-23.70999 15.24204,-44.00516 15.56643,-45.10036 0.58976,-1.99132 0.58976,-1.99132 4.97274,-1.99132 2.41063,0 4.4658,0.1835 4.56704,0.4081 0.10123,0.22444 -6.76754,20.43637 -15.26393,44.91543 -8.49641,24.47906 -15.44799,44.79531 -15.44799,45.14721 0,0.35189 -0.22716,0.83306 -0.50476,1.06925 -0.27763,0.23617 -2.61111,0.4193 -5.1855,0.40691 -3.74171,-0.0192 -4.5804,-0.19524 -4.18069,-0.88433 z m -41.30898,-25.7318 c 0.35941,-0.87548 3.85553,-10.82411 7.76918,-22.10803 3.9136,-11.28393 7.23454,-20.62234 7.3798,-20.75206 0.14526,-0.12987 0.26414,-1.18017 0.26414,-2.33437 0,-1.15422 -0.21909,-3.0378 -0.48686,-4.18578 -0.48687,-2.08724 -0.48687,-2.08724 -14.54595,-2.08724 -7.7325,0 -14.01123,-0.25555 -13.95272,-0.56792 0.0587,-0.31236 1.11156,-3.4679 2.34012,-7.01226 1.22856,-3.5444 2.52094,-6.6272 2.87196,-6.85068 0.35101,-0.22354 7.10013,-0.40642 14.99801,-0.40642 7.89789,0 14.67761,0.18905 15.06604,0.41978 0.43255,0.25712 1.29686,2.5151 2.23036,5.82685 1.4123,5.01036 1.52438,5.74558 1.52751,10.02023 0.004,4.61316 0.004,4.61316 -7.45872,26.17592 -4.10416,11.85949 -7.82867,22.43822 -8.27669,23.50825 -0.81459,1.94551 -0.81459,1.94551 -5.59712,1.94551 -4.78253,0 -4.78253,0 -4.12906,-1.59178 z"
       id="path5"
       sodipodi:nodetypes="ssssscsscscssscccscsscssscsssscsssccsssscsssscssscscscssscscccsssssssscsscccsssccsscccccsssssssccsssscscsssssccsss" /></g></svg>
