<?xml version="1.0" encoding="UTF-8" standalone="no"?>
<!-- Created with Inkscape (http://www.inkscape.org/) -->

<svg
   width="368.31528mm"
   height="86.708969mm"
   viewBox="0 0 368.31528 86.70897"
   version="1.1"
   id="svg1"
   xml:space="preserve"
   inkscape:version="1.4.2 (f4327f4, 2025-05-13)"
   sodipodi:docname="pra2dev_editable_base.svg"
   xmlns:inkscape="http://www.inkscape.org/namespaces/inkscape"
   xmlns:sodipodi="http://sodipodi.sourceforge.net/DTD/sodipodi-0.dtd"
   xmlns:xlink="http://www.w3.org/1999/xlink"
   xmlns="http://www.w3.org/2000/svg"
   xmlns:svg="http://www.w3.org/2000/svg"><sodipodi:namedview
     id="namedview1"
     pagecolor="#ffffff"
     bordercolor="#000000"
     borderopacity="0.25"
     inkscape:showpageshadow="2"
     inkscape:pageopacity="0.0"
     inkscape:pagecheckerboard="0"
     inkscape:deskcolor="#d1d1d1"
     inkscape:document-units="mm"
     inkscape:zoom="0.50835204"
     inkscape:cx="539.98013"
     inkscape:cy="59.997792"
     inkscape:window-width="1920"
     inkscape:window-height="1009"
     inkscape:window-x="-8"
     inkscape:window-y="-8"
     inkscape:window-maximized="1"
     inkscape:current-layer="layer1" /><defs
     id="defs1"><linearGradient
       id="linearGradient5"
       inkscape:collect="always"><stop
         style="stop-color:#11d416;stop-opacity:1;"
         offset="0"
         id="stop5" /><stop
         style="stop-color:#20bddf;stop-opacity:1;"
         offset="0.43614459"
         id="stop6" /><stop
         style="stop-color:#b736e1;stop-opacity:1;"
         offset="0.94939756"
         id="stop7" /></linearGradient><linearGradient
       inkscape:collect="always"
       xlink:href="#linearGradient5"
       id="linearGradient6"
       x1="43.017849"
       y1="226.35149"
       x2="375.92123"
       y2="71.116096"
       gradientUnits="userSpaceOnUse" /></defs><g
     inkscape:label="Capa 1"
     inkscape:groupmode="layer"
     id="layer1"
     transform="translate(-25.313513,-105.37929)"><path
       style="fill:url(#linearGradient6);stroke:#ffffff;stroke-opacity:0.67146975"
       d="m 36.337705,191.46193 c 0,-0.0709 5.55747,-7.33374 12.349933,-16.13958 6.792463,-8.80584 17.62715,-22.86849 24.077082,-31.25033 9.893854,-12.8573 11.935075,-15.32524 13.057204,-15.7868 1.139612,-0.46876 3.80747,-0.5471 18.632216,-0.5471 11.23334,0 17.54111,0.12788 17.98338,0.36457 0.37466,0.20052 0.99923,0.98795 1.38792,1.74984 0.38869,0.76189 0.7067,2.0412 0.7067,2.8429 0,1.33452 -0.43658,2.02843 -5.16937,8.21613 -2.84315,3.71718 -5.58159,7.20987 -6.08541,7.76154 -0.50383,0.55167 -1.66483,1.38511 -2.58001,1.85208 -1.60619,0.81957 -1.92942,0.84905 -9.30853,0.84905 -7.644553,0 -7.644553,0 -6.760336,-0.88422 0.48632,-0.48632 1.89703,-2.22584 3.134912,-3.8656 l 2.250694,-2.98139 3.175,-0.0273 3.175,-0.0273 2.46944,-3.22244 c 1.3582,-1.77235 2.66789,-3.42231 2.91042,-3.66659 0.24254,-0.24427 0.44097,-0.61422 0.44097,-0.82211 0,-0.26036 -3.28425,-0.37798 -10.55448,-0.37798 -5.804961,0 -10.805586,0.0964 -11.112496,0.21413 -0.306911,0.11778 -0.55802,0.3717 -0.55802,0.56427 0,0.19258 -9.240074,12.35966 -20.533497,27.03795 -11.293424,14.6783 -20.699361,27.04376 -20.902083,27.47881 -0.36027,0.77316 -0.501874,0.79106 -6.277612,0.79375 -3.249965,0.002 -5.909027,-0.0553 -5.909027,-0.12621 z M 25.816699,168.1532 c 0.06273,-0.27892 10.670936,-14.40109 23.573783,-31.3826 l 23.459721,-30.87546 6.111283,-0.0146 c 5.142129,-0.0123 6.093195,0.066 5.997222,0.49343 -0.06273,0.27943 -10.670936,14.4018 -23.573782,31.38305 l -23.459721,30.87499 -6.111284,0.0142 c -5.136978,0.0119 -6.093099,-0.0667 -5.997222,-0.49297 z m 272.245241,-0.64627 c -1.24134,-0.847 -2.3118,-2.19186 -4.53968,-5.70336 -2.91531,-4.59501 -2.91531,-4.59501 -2.74363,-6.73377 0.16674,-2.07722 0.27706,-2.27731 3.83412,-6.95358 l 3.66244,-4.81481 5.02708,-0.0205 c 3.02951,-0.0124 5.02709,0.11556 5.02709,0.32195 0,0.18836 -1.81103,2.68868 -4.02452,5.55625 -4.02451,5.21377 -4.02451,5.21377 -3.27923,6.44849 0.4099,0.6791 1.2733,2.06816 1.91868,3.08681 l 1.17341,1.85208 h 15.51139 c 10.83381,0 15.51138,0.11444 15.51138,0.3795 0,0.20872 -1.19069,1.93287 -2.64597,3.83143 -2.64598,3.45194 -2.64598,3.45194 -4.49792,3.67438 -1.01857,0.12235 -7.80507,0.21369 -15.08111,0.20298 -13.22917,-0.0195 -13.22917,-0.0195 -14.85353,-1.12781 z m -194.47784,0.35966 c 0.14315,-0.24253 6.59309,-8.67354 14.33322,-18.73556 7.74012,-10.06202 14.49831,-18.67857 15.01819,-19.14788 0.51989,-0.46931 1.69403,-1.24581 2.60921,-1.72555 1.66397,-0.87226 1.66397,-0.87226 16.49236,-0.87226 14.81765,0 14.8284,5.4e-4 14.8284,0.73912 0,0.40652 -1.03188,2.07592 -2.29306,3.70979 -1.26118,1.63387 -2.29306,3.1246 -2.29306,3.31273 0,0.21144 -4.13647,0.37768 -10.83242,0.43535 l -10.83243,0.0933 -12.5391,16.31472 -12.5391,16.31471 -6.10623,0.001 c -4.78888,9.8e-4 -6.05009,-0.0939 -5.84598,-0.43972 z m 44.37154,-0.89699 c -0.79604,-0.71933 -2.48773,-3.05412 -3.75933,-5.18843 -1.5589,-2.61653 -2.39291,-4.42408 -2.56041,-5.5492 -0.20406,-1.37064 -0.1116,-1.90056 0.5177,-2.96714 0.42137,-0.71417 2.10452,-3.00443 3.74033,-5.08948 2.20459,-2.81002 3.36891,-3.98206 4.49954,-4.52939 1.48324,-0.71802 1.99432,-0.7384 18.52366,-0.7384 15.95941,0 16.99743,0.0377 16.9834,0.61737 -0.008,0.33954 -1.00796,1.88736 -2.22163,3.43958 l -2.20668,2.82222 -13.37375,0.17639 -13.37375,0.17639 -1.87388,2.42691 -1.87389,2.4269 0.93636,1.63004 c 0.515,0.89652 1.31987,2.14597 1.78861,2.77656 0.85224,1.14653 0.85224,1.14653 10.00651,1.14653 5.03485,0 9.15427,0.0895 9.15427,0.19886 0,0.10937 -1.23031,1.85239 -2.73403,3.87339 l -2.73403,3.67454 -8.99583,-0.008 -8.99583,-0.008 z m 23.05416,-0.8669 c 0.95459,-1.21267 6.25393,-8.07861 11.7763,-15.25764 5.52238,-7.17902 10.16276,-13.25263 10.31197,-13.4969 0.1492,-0.24427 0.17158,-0.75826 0.0497,-1.14221 -0.2147,-0.67645 -0.6191,-0.70094 -13.05561,-0.79059 l -12.83405,-0.0925 2.89048,-3.7733 2.89048,-3.7733 14.66697,-0.0191 c 14.66698,-0.0191 14.66698,-0.0191 15.41719,0.77951 0.41262,0.43921 0.99592,1.38661 1.29622,2.10533 0.3003,0.71873 0.546,2.12096 0.546,3.11607 0,1.8093 0,1.8093 -12.12706,17.56202 -7.14353,9.27925 -12.56609,16.00643 -13.1954,16.37009 -0.86994,0.50271 -1.93195,0.61736 -5.71859,0.61736 h -4.65025 z m 183.37629,1.23472 c -0.1285,-0.53357 -0.71437,-2.24013 -1.30193,-3.79236 -0.58755,-1.55222 -1.29703,-3.17941 -1.57662,-3.61597 -0.50834,-0.79375 -0.50834,-0.79375 8.49563,-0.79375 4.95218,0 9.00396,0.0928 9.00396,0.20625 0,0.11344 -1.24607,1.82 -2.76904,3.79236 -1.52298,1.97236 -2.95731,3.9433 -3.18742,4.37986 -0.39635,0.75199 -0.62913,0.79375 -4.42465,0.79375 -4.00629,0 -4.00629,0 -4.23993,-0.97014 z M 198.00634,153.16653 c 6.29125,-8.18347 11.68397,-14.87757 12.07441,-14.98824 0.38806,-0.10999 5.42837,-0.20215 11.2007,-0.2048 5.86977,-0.003 10.49513,0.13302 10.49513,0.30794 0,0.17201 -1.10495,1.75818 -2.45545,3.52482 -1.35049,1.76664 -2.62608,3.5309 -2.83463,3.92058 -0.3574,0.6678 -0.73171,0.70851 -6.5142,0.70851 h -6.13502 l -7.62077,9.90525 c -4.19142,5.44789 -7.87271,10.28976 -8.18064,10.75972 -0.55218,0.84273 -0.63434,0.85448 -5.97913,0.85448 h -5.41925 z m 6.29874,14.10113 c 0.2662,-0.37791 1.51588,-2.03806 2.77706,-3.68921 l 2.29306,-3.0021 15.43402,-0.0149 c 10.68003,-0.0103 15.43403,0.10064 15.43403,0.36031 0,0.2064 -1.14368,1.87327 -2.5415,3.70417 l -2.5415,3.32891 h -15.66959 c -15.45993,0 -15.6631,-0.009 -15.18558,-0.68713 z m 43.33913,-2.22329 c -1.01303,-1.60073 -2.0608,-3.03737 -2.32836,-3.19253 -0.26757,-0.15516 -0.48649,-0.52753 -0.48649,-0.82749 0,-0.29995 -0.29481,-0.96675 -0.65512,-1.48177 -0.36032,-0.51502 -1.0747,-1.6961 -1.5875,-2.62462 -0.51281,-0.92851 -0.93238,-1.92703 -0.93238,-2.21891 0,-0.29189 0.34063,-1.19907 0.75696,-2.01596 0.41632,-0.81688 4.40362,-6.24775 8.86067,-12.06858 4.45704,-5.82083 8.68047,-11.09691 9.3854,-11.72461 1.28169,-1.14128 1.28169,-1.14128 16.36294,-1.14653 9.91903,-0.003 15.08125,0.11668 15.08125,0.35095 0,0.19591 -1.30969,2.033 -2.91042,4.08243 l -2.91041,3.72622 -10.24498,-0.0351 -10.24498,-0.0351 -6.95294,9.03059 c -3.82411,4.96681 -6.95245,9.21769 -6.95185,9.44638 6e-4,0.2287 0.83404,1.68581 1.85209,3.23803 l 1.85099,2.82222 12.08264,0.0928 c 6.64545,0.0511 12.08264,0.19222 12.08264,0.3137 0,0.12148 -1.15094,1.77471 -2.55764,3.67384 l -2.55764,3.45295 -12.5765,0.0257 -12.57649,0.0257 z m 24.01987,-7.06678 c 0.30403,-0.23636 8.0034,-10.10322 17.10972,-21.92636 9.10632,-11.82314 16.85035,-21.94345 17.20895,-22.48958 0.652,-0.99297 0.652,-0.99297 5.49745,-0.99297 2.665,0 4.93702,0.0916 5.04894,0.20349 0.11192,0.11192 -7.48162,10.19073 -16.87453,22.39737 -9.39292,12.20663 -17.07803,22.33745 -17.07803,22.51293 0,0.17548 -0.25111,0.41541 -0.55802,0.53318 -0.30691,0.11778 -2.8866,0.20909 -5.73264,0.20292 -4.13653,-0.009 -5.06372,-0.0974 -4.62184,-0.44098 z m 73.59039,-14.92083 c -3.07153,-8.06411 -5.49745,-14.88914 -5.39093,-15.16672 0.14973,-0.39019 0.97729,-0.5047 3.64748,-0.5047 h 3.45381 l 5.60437,14.72847 c 3.08241,8.10066 5.75949,14.92691 5.94907,15.16945 0.27137,0.34716 -0.50875,0.44039 -3.66725,0.43824 l -4.01194,-0.003 z m 18.19382,11.75705 c 1.24346,-1.60073 6.50346,-8.42697 11.68889,-15.16944 l 9.42806,-12.25903 h 4.19457 c 2.30701,0 4.27238,0.1259 4.36748,0.27977 0.0951,0.15388 -4.80062,6.74414 -10.87937,14.64503 -6.07876,7.9009 -11.14284,14.60125 -11.25352,14.88968 -0.16443,0.4285 -1.07967,0.52441 -5.00409,0.52441 h -4.80285 z m -57.92771,-3.70416 c 0.007,-0.14552 1.32597,-1.93146 2.93017,-3.96875 l 2.91672,-3.70417 8.85058,-0.0942 c 8.85057,-0.0942 8.85057,-0.0942 9.76983,-1.29938 0.50559,-0.66286 0.91925,-1.37844 0.91925,-1.59017 0,-0.21173 -0.64923,-1.41294 -1.44273,-2.66937 l -1.44274,-2.28441 h -6.62841 -6.62841 l -2.07121,2.73064 c -1.13917,1.50185 -2.18516,3.00998 -2.32443,3.35139 -0.22596,0.55394 -0.82717,0.62075 -5.58565,0.62075 -3.04789,0 -5.28205,-0.13731 -5.21484,-0.32049 0.0647,-0.17627 2.49884,-3.41728 5.40926,-7.20224 2.91041,-3.78497 5.60916,-6.97233 5.99722,-7.08303 0.38806,-0.1107 5.88477,-0.20344 12.21493,-0.20609 6.33016,-0.003 11.97179,0.0877 12.53697,0.2007 0.96001,0.192 1.1743,0.58061 3.25853,5.90903 1.22702,3.13693 2.30609,6.10941 2.39793,6.60552 0.10399,0.56167 -0.044,1.07712 -0.39221,1.36611 -0.30756,0.25526 -0.55921,0.74469 -0.55921,1.08763 0,0.34294 -1.34108,2.36657 -2.98018,4.49695 -1.76131,2.28922 -3.31236,3.9624 -3.79236,4.09096 -0.4467,0.11965 -6.96374,0.2197 -14.48232,0.22235 -7.51857,0.003 -13.66408,-0.11424 -13.65669,-0.25976 z m -77.3779,-5.46806 c 0.39733,-0.43656 4.26236,-5.3975 8.58895,-11.0243 4.32658,-5.62681 7.99792,-10.28347 8.15851,-10.34815 0.1606,-0.0647 0.292,-0.5885 0.292,-1.16405 0,-0.57555 -0.2422,-1.51482 -0.53823,-2.08726 -0.53822,-1.04082 -0.53822,-1.04082 -16.08078,-1.04082 -8.54841,0 -15.48965,-0.12744 -15.42497,-0.28321 0.0647,-0.15576 1.22884,-1.72928 2.58704,-3.4967 1.35819,-1.76743 2.78694,-3.30469 3.175,-3.41614 0.38805,-0.11146 7.8493,-0.20265 16.58055,-0.20265 8.73125,0 16.22634,0.0942 16.65576,0.20932 0.47821,0.12821 1.4337,1.25416 2.46571,2.9056 1.56132,2.49845 1.68522,2.86506 1.68868,4.99665 0.004,2.30037 0.004,2.30037 -8.24574,13.05278 -4.53722,5.91382 -8.65473,11.18897 -9.15003,11.72254 -0.90055,0.97014 -0.90055,0.97014 -6.18771,0.97014 -5.28716,0 -5.28716,0 -4.56474,-0.79375 z"
       id="path5" /></g></svg>
