<?xml version="1.0" encoding="UTF-8" standalone="no"?>
<!-- Created with Inkscape (http://www.inkscape.org/) -->

<svg
   width="205.556mm"
   height="205.556mm"
   viewBox="0 0 205.556 205.556"
   version="1.1"
   id="svg1"
   xml:space="preserve"
   inkscape:version="1.4.2 (f4327f4, 2025-05-13)"
   sodipodi:docname="icon.svg"
   xmlns:inkscape="http://www.inkscape.org/namespaces/inkscape"
   xmlns:sodipodi="http://sodipodi.sourceforge.net/DTD/sodipodi-0.dtd"
   xmlns:xlink="http://www.w3.org/1999/xlink"
   xmlns="http://www.w3.org/2000/svg"
   xmlns:svg="http://www.w3.org/2000/svg"><sodipodi:namedview
     id="namedview1"
     pagecolor="#ffffff"
     bordercolor="#000000"
     borderopacity="0.25"
     inkscape:showpageshadow="2"
     inkscape:pageopacity="0.0"
     inkscape:pagecheckerboard="0"
     inkscape:deskcolor="#d1d1d1"
     inkscape:document-units="mm"
     inkscape:zoom="0.4006251"
     inkscape:cx="667.70655"
     inkscape:cy="637.75336"
     inkscape:window-width="1920"
     inkscape:window-height="1009"
     inkscape:window-x="-8"
     inkscape:window-y="-8"
     inkscape:window-maximized="1"
     inkscape:current-layer="svg1" /><defs
     id="defs1"><linearGradient
       id="linearGradient3"
       inkscape:collect="always"><stop
         style="stop-color:#000000;stop-opacity:1;"
         offset="0.04339251"
         id="stop3" /><stop
         style="stop-color:#000000;stop-opacity:0.71625346;"
         offset="0.90335304"
         id="stop4" /></linearGradient><linearGradient
       id="linearGradient5"
       inkscape:collect="always"><stop
         style="stop-color:#11d416;stop-opacity:1;"
         offset="0"
         id="stop5" /><stop
         style="stop-color:#20bddf;stop-opacity:1;"
         offset="0.33595505"
         id="stop6" /><stop
         style="stop-color:#b736e1;stop-opacity:1;"
         offset="0.47876453"
         id="stop7" /></linearGradient><linearGradient
       inkscape:collect="always"
       xlink:href="#linearGradient5"
       id="linearGradient6"
       x1="138.59622"
       y1="172.78908"
       x2="289.16547"
       y2="79.356468"
       gradientUnits="userSpaceOnUse"
       gradientTransform="matrix(1.6608233,0,0,2.667261,-117.91115,-159.42265)" /><linearGradient
       inkscape:collect="always"
       xlink:href="#linearGradient3"
       id="linearGradient1"
       x1="1.9197981"
       y1="102.53118"
       x2="204.12363"
       y2="102.53118"
       gradientUnits="userSpaceOnUse" /></defs><rect
     style="fill:url(#linearGradient1);stroke:#ffffff;stroke-width:4.557;stroke-opacity:1;stroke-dasharray:none"
     id="rect1"
     width="199.44682"
     height="199.12617"
     x="3.2982981"
     y="2.9680917"
     rx="28.775503" /><g
     inkscape:label="Capa 1"
     inkscape:groupmode="layer"
     id="layer1"
     transform="translate(-101.8748,-105.82331)"><path
       style="fill:url(#linearGradient6);stroke:#ffffff;stroke-width:2.10474;stroke-opacity:0.67147"
       d="m 120.6265,290.27007 c 0,0.76249 17.72256,-38.41147 39.15191,-83.70558 l 38.96244,-82.3529 10.14975,-0.0389 c 8.5402,-0.0326 10.11973,0.17586 9.96032,1.31614 -0.10411,0.7453 -17.72245,38.41332 -39.15185,83.70678 l -38.96245,82.3516 -10.14981,0.0378 c -8.53161,0.032 -9.96031,-2.48039 -9.96031,-1.31488 z m 70.80902,-39.14627 c 10.44861,-21.82747 19.40502,-39.68238 20.05347,-39.97757 0.64445,-0.29338 9.01554,-0.53919 18.60241,-0.54629 9.74861,-0.009 17.43051,0.35487 17.43051,0.82138 0,0.45881 -1.8351,4.68955 -4.07805,9.40163 -2.24296,4.7121 -4.36145,9.41781 -4.70782,10.4572 -0.59361,1.78122 -1.21523,1.88981 -10.81898,1.88981 H 217.7279 l -12.65675,26.41986 c -6.9612,14.53092 -13.0752,27.44549 -13.5866,28.69899 -0.9171,2.24778 -1.05353,2.27912 -9.93028,2.27912 h -9.0004 z m 10.46107,37.61136 c 0.44209,-1.00797 2.51765,-5.43603 4.61222,-9.84006 l 3.80837,-8.00741 25.63317,-0.0397 c 17.73767,-0.0286 25.63319,0.26821 25.63319,0.96101 0,0.55056 -1.89945,4.99655 -4.22096,9.88004 l -4.22096,8.87909 h -26.02445 c -25.67621,0 -26.01364,-0.0255 -25.22058,-1.83279 z m 39.59006,-57.68235 c 0.65991,-1.16443 7.07902,-14.39656 14.26475,-29.40471 7.18564,-15.00812 13.28311,-27.42865 13.54982,-27.6012 0.26671,-0.17271 0.48498,-1.56966 0.48498,-3.10479 0,-1.53518 -0.40227,-4.04042 -0.89391,-5.56729 -0.89394,-2.77613 -0.89394,-2.77613 -26.70737,-2.77613 -14.1974,0 -25.72557,-0.3399 -25.61814,-0.75538 0.10777,-0.41542 2.04089,-4.61245 4.29662,-9.32659 2.25572,-4.71424 4.6286,-8.8145 5.27312,-9.11175 0.64447,-0.29731 13.03632,-0.54055 27.53737,-0.54055 14.50105,0 26.9491,0.25145 27.66228,0.55832 0.7942,0.34199 2.38113,3.3452 4.0951,7.74998 2.59307,6.66402 2.79887,7.6419 2.8046,13.32737 0.008,6.13572 0.008,6.13572 -13.69472,34.81519 -7.53551,15.77366 -14.37396,29.84387 -15.19658,31.26705 -1.49562,2.58763 -1.49562,2.58763 -10.27667,2.58763 -8.78106,0 -8.78106,0 -7.58125,-2.11715 z"
       id="path5"
       sodipodi:nodetypes="sscsssccsssscsssscssscscscssscsccsssscscsssssccsss" /></g></svg>
